<?xml version="1.0" encoding="UTF-8" standalone="no"?>
<!-- Created with Inkscape (http://www.inkscape.org/) -->

<svg
   width="114.10577mm"
   height="72.994873mm"
   viewBox="0 0 114.10577 72.994873"
   version="1.1"
   id="svg1"
   xml:space="preserve"
   xmlns="http://www.w3.org/2000/svg"
   xmlns:svg="http://www.w3.org/2000/svg"><defs
     id="defs1" /><g
     id="layer1"
     transform="translate(372.44498,-24.227864)"><path
       style="fill:#333764;fill-opacity:1"
       d="m -235.66685,257.15276 c -5.2646,-0.77484 -9.20638,-4.45618 -10.3228,-9.64075 -0.47653,-2.21298 -0.4205,-6.25829 0.11504,-8.3045 1.78105,-6.80521 7.7482,-10.60108 15.11545,-9.61535 2.54241,0.34017 5.69211,1.62297 5.69211,2.31827 0,0.6627 -0.79754,3.26957 -1.04757,3.42409 -0.12051,0.0745 -0.85684,-0.15519 -1.63629,-0.51039 -4.31846,-1.96791 -9.43909,-1.04152 -11.59948,2.0985 -1.4008,2.03599 -1.67787,3.12 -1.69225,6.62063 -0.0153,3.72497 0.49314,5.41212 2.14647,7.12255 1.55632,1.61006 3.33891,2.30306 5.97422,2.32251 3.29694,0.0243 3.24051,0.0911 3.14314,-3.72007 -0.0816,-3.192 -0.0816,-3.192 -2.51354,-3.26787 -2.43199,-0.0759 -2.43199,-0.0759 -2.3493,-1.66337 0.14143,-2.71529 -0.22328,-2.51354 4.54371,-2.51354 2.30662,0 4.38219,0.0723 4.61238,0.1606 0.36669,0.14071 0.41851,1.00746 0.41851,7.00025 0,6.83966 0,6.83966 -1.78724,7.37192 -3.28808,0.97923 -5.94157,1.21907 -8.81256,0.79652 z m -25.64812,-0.21693 c -2.55839,-0.83499 -4.22892,-2.31688 -5.40184,-4.79185 -0.75765,-1.59871 -0.81586,-1.92923 -0.81586,-4.63197 0,-3.67119 0.47027,-5.14721 2.26591,-7.11193 3.27389,-3.58216 9.09043,-3.96339 13.27441,-0.87004 0.40694,0.30087 1.15144,1.14833 1.65444,1.88325 2.57913,3.76829 2.14887,10.06983 -0.89465,13.10299 -1.93661,1.93001 -3.34863,2.47456 -6.64282,2.56183 -1.52797,0.0405 -3.07578,-0.0235 -3.43959,-0.14228 z m 5.58327,-4.34083 c 2.63961,-1.77795 3.12781,-7.03766 0.8953,-9.64583 -1.44257,-1.68533 -3.83843,-2.03048 -5.82719,-0.83948 -1.25321,0.75051 -2.04007,2.40769 -2.17858,4.58824 -0.16399,2.58165 0.26927,3.9914 1.65147,5.3736 1.0968,1.0968 1.17799,1.12902 2.8445,1.12902 1.34935,0 1.90735,-0.12924 2.6145,-0.60555 z m 39.89392,4.22356 c -3.55943,-1.326 -5.62897,-4.24417 -5.98008,-8.43224 -0.47544,-5.67099 2.47429,-9.86695 7.58832,-10.7943 4.5246,-0.82046 8.77473,1.43633 10.35985,5.50102 0.8486,2.17606 0.85564,6.43378 0.0141,8.55893 -0.79123,1.99819 -2.36972,3.73389 -4.2181,4.63822 -1.29461,0.6334 -1.88443,0.74852 -4.15778,0.81153 -1.74143,0.0483 -2.97713,-0.0488 -3.60634,-0.28316 z m 6.09503,-4.55607 c 0.63186,-0.57085 1.20181,-1.41788 1.45597,-2.1638 0.47667,-1.39894 0.54382,-3.97385 0.14142,-5.42273 -0.54919,-1.97747 -2.34644,-3.38166 -4.32826,-3.38166 -3.09957,0 -4.86775,2.58683 -4.59736,6.72587 0.23229,3.55585 1.67653,5.16794 4.63703,5.17592 1.52428,0.004 1.73367,-0.0685 2.6912,-0.9336 z m -78.29513,-8.87628 c 0,-13.5185 0,-13.5185 6.15156,-13.41245 5.66289,0.0976 6.27517,0.15467 7.70753,0.71817 2.92822,1.15198 4.70645,3.4584 5.15835,6.69051 0.6443,4.6082 -1.28864,8.26033 -5.1483,9.72729 -1.24585,0.47351 -2.3098,0.62362 -5.20404,0.73419 -3.63802,0.13898 -3.63802,0.13898 -3.63802,4.59989 0,4.46091 0,4.46091 -2.51354,4.46091 -2.51354,0 -2.51354,0 -2.51354,-13.51851 z m 11.99221,-0.35545 c 1.19281,-0.58066 1.72766,-1.31495 2.07108,-2.84337 0.53915,-2.39959 -0.79364,-4.90278 -2.93692,-5.516 -0.51695,-0.14791 -2.10077,-0.34359 -3.5196,-0.43485 -2.57969,-0.16592 -2.57969,-0.16592 -2.57969,4.6651 0,4.83102 0,4.83102 2.97656,4.72639 2.19901,-0.0773 3.24093,-0.23332 3.98857,-0.59727 z m 125.06195,2.03244 c -3.72513,-0.0614 -4.14123,-0.11584 -4.53954,-0.59434 -0.51886,-0.62332 -0.36003,-1.49508 0.34072,-1.87011 0.27367,-0.14646 1.27083,-0.3385 2.21591,-0.42676 1.71833,-0.16046 1.71833,-0.16046 1.71833,-4.36057 0,-4.72417 0.28486,-4.30879 -2.47944,-3.61551 -1.85612,0.46552 -3.23719,-0.54799 -2.42852,-1.78218 0.41116,-0.62751 1.33155,-0.89282 5.43713,-1.56724 1.0914,-0.17929 1.80578,-0.40189 1.5875,-0.49467 -0.21828,-0.0928 -1.7604,-0.51621 -3.42693,-0.94094 -1.90948,-0.48665 -3.15703,-0.94591 -3.37343,-1.24185 -0.52484,-0.71776 -0.41257,-1.63511 0.25192,-2.05853 0.45423,-0.28943 5.29642,-1.44529 6.25455,-1.49299 0.52121,-0.026 -0.95032,-0.55553 -2.88554,-1.03846 -3.10007,-0.77361 -3.629,-1.01688 -3.81405,-1.75419 -0.25319,-1.0088 0.0952,-1.89133 0.86493,-2.19086 0.38753,-0.15081 1.89136,-0.52421 3.34185,-0.82979 1.45049,-0.30558 2.67075,-0.5891 2.7117,-0.63004 0.0409,-0.041 -1.07405,-0.33826 -2.47775,-0.6607 -3.32593,-0.76399 -4.27211,-1.17729 -4.58614,-2.00324 -0.52494,-1.38071 -0.0166,-1.86967 2.62132,-2.52149 2.4009,-0.59324 2.4009,-0.59324 2.4009,-8.2552 0,-8.59094 0.97515,-6.32478 -8.66173,-20.12909 -2.27423,-3.25772 -3.25475,-4.88097 -3.1964,-5.29167 0.0842,-0.59243 0.0842,-0.59243 13.01859,-0.66112 13.36274,-0.0709 13.85232,-0.0358 13.58209,0.97625 -0.061,0.22844 -1.81272,2.85614 -3.89271,5.83931 -8.70434,12.484 -7.94095,10.67989 -8.01037,18.93074 -0.0604,7.18147 -0.0534,7.28792 0.46782,7.12958 0.29104,-0.0884 1.27142,-0.22977 2.17861,-0.31413 1.75382,-0.16309 2.4516,0.11246 2.4516,0.96812 0,0.86919 -0.92612,1.2923 -4.10104,1.87358 -1.74625,0.31971 -3.274,0.67161 -3.395,0.78201 -0.121,0.1104 0.71244,0.40354 1.85208,0.65143 4.73902,1.03079 5.64396,1.45711 5.64396,2.65886 0,1.28769 -0.9745,1.89295 -3.83646,2.38283 -1.45521,0.24908 -2.81157,0.54248 -3.01413,0.65199 -0.22191,0.11998 0.88231,0.4875 2.77813,0.92465 3.34178,0.77058 4.07246,1.16079 4.07246,2.17483 0,1.22911 -0.96652,1.78138 -4.30416,2.45939 -1.70982,0.34734 -3.01844,0.7169 -2.90803,0.82124 0.1104,0.10435 1.51042,0.45146 3.11115,0.77137 3.62473,0.72442 3.83646,0.83318 3.83646,1.9708 0,1.19998 -0.49971,1.63174 -2.31501,2.0002 -2.69117,0.54625 -2.45622,0.0476 -2.52177,5.3526 -0.058,4.69563 -0.058,4.69563 1.44612,4.69548 2.10257,-2.1e-4 2.8625,0.33224 2.85744,1.25007 -0.002,0.40378 -0.0915,0.86577 -0.19844,1.02665 -0.26985,0.40605 -1.90543,0.51229 -6.67668,0.43369 z m 5.92155,-57.21457 c 2.56398,-3.63793 4.66179,-6.67402 4.66179,-6.74687 0,-0.0729 -4.23664,-0.13245 -9.41476,-0.13245 -6.06044,0 -9.38333,0.0928 -9.32656,0.26045 0.15943,0.47086 9.08002,13.23018 9.25088,13.23176 0.0918,8.4e-4 2.26466,-2.97496 4.82865,-6.61289 z m -5.98104,1.18799 c -1.43425,-0.80436 -1.74894,-2.84335 -0.61399,-3.9783 0.9576,-0.9576 2.70273,-0.9135 3.66669,0.0926 1.98324,2.07006 -0.54711,5.29082 -3.0527,3.88565 z m 1.85538,-2.21059 c -0.0452,-0.23468 -0.28952,-0.46662 -0.54295,-0.51543 -0.56496,-0.1088 -0.93582,0.71413 -0.45559,1.01093 0.49384,0.30521 1.09527,0.007 0.99854,-0.4955 z m -68.27245,48.09708 c -0.53888,-0.31387 -0.6338,-1.81886 -0.14552,-2.30714 0.22151,-0.22151 1.64894,-0.3175 4.7215,-0.3175 3.93049,0 4.45107,0.052 4.84187,0.48385 0.54652,0.6039 0.55333,1.08566 0.026,1.83853 -0.39723,0.56711 -0.56435,0.58775 -4.69636,0.57999 -2.41523,-0.005 -4.48649,-0.1257 -4.7475,-0.27773 z m 105.23802,-6.30017 c -2.57445,-0.69455 -4.27009,-2.11077 -5.39226,-4.50367 -0.6272,-1.33744 -0.69316,-1.78022 -0.69316,-4.65309 0,-2.86149 0.0675,-3.31885 0.68342,-4.63182 1.41117,-3.00811 3.98397,-4.61252 7.38638,-4.60618 3.39019,0.006 5.89013,1.60518 7.30316,4.67082 0.69466,1.5071 0.76378,1.91967 0.76513,4.56718 0.001,2.58396 -0.0757,3.075 -0.68671,4.3777 -0.93321,1.98962 -2.12059,3.27415 -3.77452,4.08334 -1.49696,0.73239 -4.20606,1.06947 -5.59144,0.69572 z m 4.5118,-4.58178 c 2.04032,-2.22637 1.87681,-7.54192 -0.29053,-9.44487 -0.75308,-0.66122 -1.16631,-0.81865 -2.14873,-0.81865 -2.63794,0 -3.85037,1.62237 -4.01071,5.36678 -0.0898,2.09597 -0.03,2.46625 0.6092,3.77266 0.8857,1.81031 1.65882,2.27798 3.55537,2.15072 1.24123,-0.0833 1.5466,-0.22047 2.2854,-1.02664 z m 16.059727,4.42717 c -4.07579,-1.15112 -6.59278,-3.84427 -7.60492,-8.13719 -0.5014,-2.12663 -0.50167,-6.21674 -5.5e-4,-8.34216 0.87084,-3.69357 3.23259,-6.84663 6.15384,-8.21572 1.35888,-0.63686 1.822,-0.71125 4.42802,-0.71125 2.72618,0 3.02369,0.0537 4.69997,0.84769 0.98426,0.46623 1.86514,1.04466 1.95752,1.2854 0.18749,0.48859 -0.61312,3.29087 -0.9402,3.29087 -0.11484,0 -0.85289,-0.35229 -1.64013,-0.78287 -1.74861,-0.9564 -3.78687,-1.2563 -5.42369,-0.79802 -1.58804,0.44462 -3.58595,2.26326 -4.29366,3.90838 -1.60821,3.73838 -1.11553,9.43004 1.04295,12.04865 1.25978,1.52833 2.65916,2.13107 4.89176,2.10698 3.1517,-0.034 3.01277,0.12857 3.01277,-3.52567 0,-3.14647 0,-3.14647 -2.18282,-3.22331 -2.18281,-0.0769 -2.18281,-0.0769 -2.26817,-1.12354 -0.047,-0.57568 -0.0174,-1.40912 0.0657,-1.85208 0.15106,-0.80539 0.15106,-0.80539 4.18641,-0.75005 2.21945,0.0304 4.12465,0.0602 4.23379,0.0661 0.10914,0.006 0.19844,2.80459 0.19844,6.21921 0,7.05878 0.27361,6.30722 -2.64583,7.26771 -2.27469,0.74837 -6.00527,0.94782 -7.87118,0.42083 z m 19.24826,0.14314 c -3.24267,-0.98995 -5.27158,-3.54906 -5.8064,-7.32373 -0.66021,-4.65963 0.99678,-8.62741 4.32737,-10.36223 1.16573,-0.6072 1.66679,-0.70148 3.72799,-0.70148 2.0612,0 2.56226,0.0943 3.72798,0.70148 1.57102,0.8183 2.86835,2.20252 3.6524,3.89702 0.47612,1.02901 0.55712,1.70414 0.55712,4.64365 0,3.23337 -0.0445,3.53023 -0.74246,4.95153 -0.93295,1.89986 -2.73782,3.52115 -4.50358,4.04553 -1.40212,0.41638 -3.82403,0.48905 -4.94042,0.14823 z m 4.28947,-4.02589 c 1.27727,-0.9095 1.78432,-2.36428 1.78432,-5.1194 0,-2.7126 -0.48701,-4.15032 -1.74107,-5.13987 -0.63959,-0.50469 -1.00172,-0.58313 -2.27228,-0.49221 -2.58964,0.18532 -3.66012,1.80996 -3.67409,5.57611 -0.01,2.57592 0.48724,4.09464 1.66307,5.08404 1.04531,0.87957 3.07177,0.92322 4.24005,0.0913 z m -67.083907,3.83233 c -0.097,-0.097 -0.17639,-5.81201 -0.17639,-12.69999 0,-12.52362 0,-12.52362 4.20546,-12.52362 3.43907,0 4.5119,0.095 5.88698,0.52133 2.07495,0.64331 3.46379,1.76019 4.4024,3.54034 0.64263,1.21879 0.71829,1.641 0.71829,4.00813 0,2.36365 -0.0762,2.7903 -0.71439,4.00043 -0.78016,1.47929 -1.80539,2.4615 -3.48772,3.34136 -0.86237,0.45102 -1.68136,0.5922 -3.93342,0.67808 -2.84427,0.10846 -2.84427,0.10846 -2.84427,4.5488 0,3.80493 -0.0599,4.46332 -0.41851,4.60093 -0.5658,0.21712 -3.4179,0.20475 -3.63843,-0.0158 z m 8.10935,-12.90694 c 1.94584,-0.69397 2.90235,-2.10577 2.90235,-4.28381 0,-2.76732 -1.85555,-4.32869 -5.14429,-4.32869 -1.81047,0 -1.81047,0 -1.81047,4.49792 0,4.49791 0,4.49791 1.52136,4.4863 0.83674,-0.006 1.97572,-0.17366 2.53105,-0.37172 z m -142.95866,10.96667 c -1.08559,-1.0856 -0.41895,-3.175 1.01302,-3.175 0.75936,0 1.63282,0.9009 1.63282,1.68411 0,0.81672 -0.9571,2.02005 -1.60671,2.02005 -0.28048,0 -0.74808,-0.23812 -1.03913,-0.52916 z m 3.58688,-6.40887 c -1.34492,-1.92015 1.05049,-3.97089 2.49429,-2.1354 0.5742,0.72997 0.55491,1.66305 -0.0494,2.39122 -0.46853,0.56455 -1.98112,0.40627 -2.44487,-0.25582 z m 5.24821,-5.10491 c -0.78166,-0.78166 -0.68162,-1.52407 0.32917,-2.44299 0.79275,-0.7207 1.71249,-0.76519 2.30411,-0.11146 0.81779,0.90364 0.44812,2.24696 -0.80149,2.91251 -0.82702,0.44047 -1.08337,0.39036 -1.83179,-0.35806 z m 6.51075,-3.03831 c -0.94137,-0.94136 -0.6558,-2.42993 0.58972,-3.07402 1.01539,-0.52508 2.00217,-0.27729 2.33005,0.5851 0.40445,1.06377 0.30338,1.67108 -0.39421,2.36866 -0.7866,0.78661 -1.81047,0.83536 -2.52556,0.12026 z m 10.23205,0.15012 c -1.7173,-0.46159 -3.46363,-1.70937 -3.56289,-2.54572 -0.0457,-0.3855 0.14988,-0.89908 0.47569,-1.24879 0.45819,-0.49181 0.64804,-0.54335 1.10354,-0.29957 0.71866,0.38461 0.79026,0.25541 1.6675,-3.00903 0.57676,-2.1463 0.64448,-2.68759 0.35853,-2.86576 -0.1939,-0.12082 -1.42411,-0.4645 -2.7338,-0.76375 -3.61244,-0.82539 -4.60122,-1.24841 -4.80368,-2.05509 -0.25357,-1.01029 0.40914,-2.03143 1.37235,-2.11461 0.43202,-0.0373 2.24695,0.33353 4.03318,0.82406 1.78622,0.49054 3.29046,0.81871 3.34275,0.72928 0.11005,-0.1882 2.76988,-9.33603 4.5019,-15.48315 0.85917,-3.04929 1.11593,-4.33835 0.93242,-4.68125 -0.13928,-0.26025 -1.45213,-3.42678 -2.91744,-7.03673 -1.46531,-3.60995 -3.31966,-8.07793 -4.12078,-9.92884 -0.80113,-1.85091 -1.41442,-3.57732 -1.36286,-3.83646 0.0665,-0.33432 0.32234,-0.46232 0.88086,-0.44074 0.43292,0.0167 5.54963,1.16551 11.37047,2.55283 10.58333,2.52241 10.58333,2.52241 12.08504,1.09406 1.64281,-1.56255 1.61506,-1.54893 2.35214,-1.15446 0.76263,0.40814 0.62806,0.93274 -0.53852,2.09932 -1.0503,1.0503 -1.0503,1.0503 -0.0517,1.31919 0.54921,0.14788 1.4088,0.34685 1.91019,0.44214 2.43277,0.46234 2.1435,1.13689 -1.93264,4.50672 -15.58631,12.8855 -13.97751,11.24953 -15.34809,15.60718 -1.9613,6.23581 -4.41406,15.80729 -4.12484,16.09651 0.0744,0.0744 1.53651,0.54755 3.24922,1.05152 1.71271,0.50398 3.28061,1.05458 3.48423,1.22357 0.4914,0.40783 0.47036,1.56922 -0.0417,2.30025 -0.57407,0.81959 -1.54791,0.75405 -5.00444,-0.33679 -1.59653,-0.50385 -2.98532,-0.8293 -3.08622,-0.72323 -0.2283,0.24001 -1.55119,5.06129 -1.55145,5.65427 -1e-4,0.24272 0.29163,0.50758 0.66127,0.60035 0.84106,0.2111 0.90531,1.38191 0.12199,2.22271 -0.61258,0.65753 -0.93263,0.68104 -2.72223,0.20001 z m 15.14172,-39.23425 c 3.29735,-2.58316 5.18542,-4.22703 4.98275,-4.3383 -0.17947,-0.0985 -1.57647,-0.25758 -3.10444,-0.35342 -2.5114,-0.15753 -2.86029,-0.12266 -3.6339,0.36316 -0.77052,0.48387 -0.82916,0.60743 -0.58858,1.24021 0.74668,1.96391 -1.44383,3.65493 -3.41446,2.63588 -0.45753,-0.2366 -0.89514,-0.71628 -0.98687,-1.08175 -0.30149,-1.20124 0.0885,-1.89626 1.5316,-2.72942 1.37549,-0.79413 1.37549,-0.79413 0.46354,-0.9342 -1.81469,-0.27872 -5.54216,-0.4308 -5.54216,-0.22613 0,0.38046 3.43746,8.86487 3.73862,9.22775 0.16221,0.19544 0.50865,0.35536 0.76988,0.35536 0.26123,0 2.86404,-1.87162 5.78402,-4.15914 z m -4.09195,-2.16314 c 0.0805,-0.13027 -0.0199,-0.30066 -0.2231,-0.37864 -0.38796,-0.14888 -0.68581,0.0227 -0.68581,0.39501 0,0.29548 0.72424,0.28243 0.90891,-0.0164 z m 12.2916,-4.27647 c 0.34803,-0.28984 0.56795,-0.59182 0.4887,-0.67107 -0.0793,-0.0793 -0.83967,-0.32573 -1.68984,-0.54774 -1.50157,-0.39211 -1.57794,-0.38607 -2.67152,0.21132 -0.61917,0.33824 -1.12576,0.69284 -1.12576,0.788 0,0.14614 2.67447,0.63089 3.96875,0.71934 0.21828,0.0149 0.68163,-0.21002 1.02967,-0.49985 z m -6.50444,-1.22471 c 0.88325,-0.53655 1.49414,-1.01052 1.35753,-1.05327 -1.01298,-0.31703 -16.34407,-4.05489 -16.39591,-3.99747 -0.0363,0.0402 0.36731,1.17873 0.89698,2.52998 0.70089,1.78804 1.10709,2.48933 1.49221,2.57623 0.45204,0.10199 8.55947,0.79319 10.41643,0.88805 0.34477,0.0176 1.34951,-0.40697 2.23276,-0.94352 z m 153.964877,42.36783 c -0.63973,-0.44809 -0.7757,-1.41129 -0.27053,-1.91646 0.21795,-0.21795 1.5287,-0.3175 4.18041,-0.3175 4.06233,0 4.49792,0.11646 4.49792,1.20254 0,1.21286 -0.7015,1.44329 -4.39373,1.44329 -2.6726,0 -3.55534,-0.0906 -4.01407,-0.41187 z M -132.68954,121.1611 c -1.38973,-0.28242 -1.89001,-0.65732 -1.89001,-1.41636 0,-1.19403 0.66118,-1.67155 2.57257,-1.85799 2.66968,-0.2604 4.07914,-0.46851 3.96257,-0.58507 -0.0571,-0.0571 -1.0742,-0.38599 -2.26015,-0.73078 -1.18595,-0.34479 -2.45439,-0.82222 -2.81876,-1.06096 -1.28692,-0.84323 -0.58738,-2.65185 1.122,-2.90089 0.5465,-0.0796 1.64622,-0.22421 2.44381,-0.32132 1.45018,-0.17655 1.45018,-0.17655 -0.58245,-0.894 -2.45607,-0.86691 -2.85209,-1.16835 -2.85209,-2.17093 0,-1.23968 0.9632,-1.97853 2.86742,-2.19954 0.89677,-0.10408 1.6305,-0.26867 1.6305,-0.36574 0,-0.0971 -0.58972,-0.38595 -1.31049,-0.64195 -1.71387,-0.60871 -2.1291,-1.06066 -2.1291,-2.31739 0,-1.2118 0.55821,-1.68665 2.31511,-1.96941 0.61846,-0.0995 1.12448,-0.21339 1.12448,-0.253 0,-0.0396 -0.43705,-0.53517 -0.97122,-1.10123 -1.34202,-1.422124 -2.5607,-3.403064 -3.15615,-5.130234 -0.64015,-1.85685 -0.6458,-7.16449 -0.0125,-11.76297 0.23965,-1.74021 0.43573,-3.29884 0.43573,-3.46363 0,-0.16479 -0.65759,-0.44678 -1.46131,-0.62664 -1.58764,-0.3553 -3.48709,-1.62048 -4.02311,-2.6797 -0.91854,-1.8151 0.55257,-15.58442 2.17453,-20.35318 1.37224,-4.03453 3.77699,-7.40857 6.97538,-9.786904 1.85978,-1.382951 1.85978,-1.382951 -4.51104,-9.868891 -3.50395,-4.667267 -6.42785,-8.703993 -6.49754,-8.970503 -0.0697,-0.266509 0.0685,-0.782429 0.30699,-1.146489 0.43372,-0.661926 0.43372,-0.661926 19.33922,-0.661926 18.90551,0 18.90551,0 19.33922,0.661926 0.23854,0.36406 0.37704,0.878661 0.30776,1.143559 -0.23705,0.906498 -18.2573,25.223218 -18.91363,25.522258 -0.44436,0.20247 -0.77843,0.20886 -1.08462,0.0207 -0.36629,-0.22502 -3.1292,-3.65222 -4.41369,-5.47487 -0.31522,-0.44728 -0.40017,-0.45299 -1.1294,-0.0759 -2.69339,1.39281 -5.86383,5.59998 -7.15546,9.4953 -1.28554,3.87694 -2.84512,15.9581 -2.32671,18.02361 0.3163,1.26024 2.60856,2.22997 3.30048,1.39626 0.16053,-0.19342 0.66355,-2.00913 1.11782,-4.0349 1.08592,-4.84248 1.9359,-7.50907 3.1137,-9.76834 1.74758,-3.35225 4.98268,-5.90026 8.80045,-6.93136 1.92772,-0.52064 9.06589,-0.61545 9.55444,-0.12691 0.1605,0.1605 0.25362,1.40546 0.22474,3.00456 -0.0573,3.17378 -0.36865,3.92113 -1.63342,3.92113 -0.80176,0 -1.078,-0.21689 -2.96362,-2.32682 -0.9074,-1.01535 -2.22791,-1.31248 -3.87883,-0.87279 -4.02049,1.07078 -7.53509,5.21208 -9.35726,11.02577 -0.8621,2.75055 -2.27348,9.94039 -2.48192,12.64342 -0.14248,1.84767 -0.1034,2.14033 0.3279,2.4557 0.64529,0.47185 2.2406,0.47429 2.2406,0.003 0,-0.85707 1.70511,-3.65173 2.92324,-4.79115 1.98351,-1.85534 3.86836,-2.62134 6.46946,-2.62916 2.82644,-0.008 4.29161,0.75032 6.072,3.14472 0.35791,0.48135 0.39419,0.30202 0.40147,-1.98437 0.0133,-4.16702 -0.97671,-5.34171 -4.76822,-5.65791 -1.1939,-0.0996 -2.38536,-0.29589 -2.64768,-0.43628 -0.64279,-0.34402 -0.84687,-1.09686 -0.52606,-1.94066 0.26477,-0.6964 0.26477,-0.6964 5.54737,-0.6964 3.92032,0 5.33494,0.0847 5.48554,0.32835 0.11161,0.1806 0.16787,2.22538 0.12501,4.54396 -0.0429,2.31858 0.0731,6.74019 0.25765,9.8258 0.37928,6.34074 0.14028,8.5725 -1.20711,11.27203 -1.95261,3.912114 -5.23439,5.605654 -13.49301,6.962944 -2.32313,0.3818 -4.27493,0.74525 -4.33734,0.80766 -0.18839,0.18839 0.4848,0.33073 3.63228,0.76805 3.55373,0.49376 4.36895,0.81654 4.48028,1.77396 0.16833,1.44762 -1.39485,2.07807 -5.15812,2.08036 -1.33748,8.1e-4 -2.49561,0.10475 -2.57363,0.23098 -0.078,0.12623 1.05293,0.48392 2.51322,0.79486 3.64167,0.77544 4.21198,1.09783 4.21198,2.381 0,1.74664 -0.55011,2.00329 -4.52541,2.11131 -1.87665,0.051 -3.41209,0.19982 -3.41209,0.33073 0,0.1309 0.19059,0.23801 0.42354,0.23801 0.65271,0 6.01624,1.60309 6.38948,1.90974 0.39894,0.32776 0.43098,1.37731 0.063,2.06483 -0.32433,0.60602 -1.31671,0.89935 -5.28855,1.5632 -4.21804,0.70501 -5.50894,0.80601 -6.84124,0.53527 z m 17.0854,-22.893964 c 2.3047,-1.35055 3.54245,-4.1279 3.55033,-7.96646 0.006,-2.85325 -0.46271,-4.73003 -1.61536,-6.47022 -1.99679,-3.01459 -5.14989,-3.69942 -7.45297,-1.61872 -2.03469,1.83822 -2.87408,4.40898 -2.87408,8.80233 0,3.20124 0.57074,4.96964 2.07937,6.44278 1.90338,1.8586 4.05294,2.13451 6.31271,0.81029 z m -1.59543,-53.73189 c 0.98332,-0.466619 2.05168,-1.866277 2.34534,-3.072639 0.2355,-0.9674 -0.28561,-2.168015 -1.10253,-2.54023 -2.41443,-1.10009 -5.65821,0.722027 -5.65821,3.178373 0,1.307295 0.33273,1.955218 1.26343,2.460289 0.9555,0.518534 2.0233,0.509796 3.15197,-0.02579 z m -2.04065,-2.083151 c -0.70186,-0.845685 0.62164,-2.385683 1.54807,-1.801307 0.66922,0.422134 0.65477,0.827479 -0.0548,1.537042 -0.77563,0.775632 -1.03133,0.820882 -1.49328,0.264265 z m 12.08272,-9.993978 c 2.41893,-3.227353 2.41893,-3.227353 -12.54346,-3.295702 -8.22931,-0.03759 -15.01414,-0.01659 -15.07741,0.04668 -0.0633,0.06326 0.98667,1.552538 2.33317,3.309495 2.4482,3.194468 2.4482,3.194468 12.65849,3.180675 10.21028,-0.01379 10.21028,-0.01379 12.62921,-3.241146 z m 14.249817,69.919593 c -2.92374,-0.59934 -5.01427,-1.73912 -6.95651,-3.792764 -2.565677,-2.71283 -3.711367,-6.32134 -3.412497,-10.74819 0.25726,-3.81057 1.56008,-6.70325 4.039707,-8.9695 5.08943,-4.65145 13.58881,-4.54157 18.36784,0.23746 2.39711,2.39711 3.4441,5.02628 3.635,9.12813 0.15469,3.32365 -0.22251,5.30126 -1.51844,7.96117 -2.26476,4.648414 -8.45427,7.352324 -14.1551,6.183694 z m 5.41506,-4.377154 c 1.04999,-0.31181 1.76696,-0.77564 2.80768,-1.81636 1.9214,-1.92139 2.59856,-4.07457 2.4494,-7.78833 -0.0911,-2.2681 -0.21012,-2.80183 -0.96818,-4.34166 -1.00132,-2.03398 -2.20737,-3.13936 -4.28,-3.92276 -1.96129,-0.74131 -4.43239,-0.58603 -6.4599,0.40594 -1.68665,0.8252 -2.61339,1.82685 -3.57041,3.859 -0.61868,1.31372 -0.68531,1.76453 -0.68531,4.63648 0,3.10971 0.0208,3.22256 0.92604,5.01688 1.0611,2.10334 2.22952,3.15752 4.28756,3.86837 1.73798,0.60031 3.65251,0.62904 5.49312,0.0824 z m -70.712887,4.221264 c -0.1026,-0.10259 -0.18654,-6.045714 -0.18654,-13.206924 0,-11.17538 0.0555,-13.06645 0.39176,-13.34552 0.60691,-0.50368 10.15935,-0.21843 11.9513,0.35689 2.97674,0.9557 5.27564,3.19765 6.09122,5.9403 0.64639,2.17372 0.57515,5.58806 -0.15656,7.50301 -1.43429,3.75364 -4.87235,5.51014 -10.78522,5.51014 -2.97965,0 -2.97965,0 -3.05326,3.63802 -0.0736,3.638034 -0.0736,3.638034 -2.06988,3.714334 -1.09795,0.042 -2.08022,-0.008 -2.18282,-0.11025 z m 10.95131,-11.881254 c 2.17318,-0.76674 3.14965,-2.22559 3.14965,-4.70558 0,-3.96255 -1.83883,-5.46741 -6.94531,-5.6839 -2.84427,-0.12059 -2.84427,-0.12059 -2.84427,5.33736 0,5.45794 0,5.45794 2.74486,5.45794 1.79043,0 3.1448,-0.14111 3.89507,-0.40582 z"
       id="path1" /><path
       d="m -289.48133,76.407057 c -5.53652,-0.70307 -9.54623,-4.38396 -10.59773,-9.72864 -0.45317,-2.30342 -0.19706,-6.12549 0.5402,-8.06161 1.38388,-3.63424 4.42422,-6.61027 7.93038,-7.76264 2.1265,-0.69892 7.54789,-0.65308 9.40319,0.0795 1.31616,0.5197 1.32283,0.52839 1.30637,1.70036 -0.0257,1.82777 -0.32342,2.71415 -0.85535,2.54642 -5.21878,-1.64557 -8.76003,-1.22776 -11.28283,1.33119 -1.78478,1.81035 -2.36895,3.52476 -2.37075,6.95767 -10e-4,2.19276 0.11346,3.06423 0.54399,4.13595 1.25788,3.1313 3.33196,4.61005 6.74292,4.80751 1.12317,0.065 2.46719,0.0385 2.9867,-0.059 0.94458,-0.1772 0.94458,-0.1772 0.94458,-3.4725 0,-3.2953 0,-3.2953 -2.38125,-3.2953 -2.38125,0 -2.38125,0 -2.38125,-1.15756 0,-0.63665 0.075,-1.53243 0.16661,-1.99061 0.16661,-0.83307 0.16661,-0.83307 4.56406,-0.76068 4.39745,0.0724 4.39745,0.0724 4.46809,6.73036 0.0706,6.65797 0.0706,6.65797 -1.19062,7.05562 -3.02319,0.95313 -5.93219,1.27477 -8.53731,0.94395 z m -25.66316,-0.3997 c -4.09431,-1.48341 -5.99969,-4.89035 -5.78093,-10.33672 0.1265,-3.14942 0.86917,-4.94948 2.76188,-6.69412 1.63336,-1.50558 3.19931,-2.14801 5.64429,-2.3156 4.56495,-0.31289 7.68653,1.61948 9.34111,5.78245 0.80894,2.03532 0.79342,6.34255 -0.0305,8.47319 -0.76791,1.98573 -2.34777,3.72992 -4.19877,4.63553 -1.26795,0.62035 -1.89776,0.7472 -4.02549,0.81077 -1.82497,0.0545 -2.85114,-0.0438 -3.71155,-0.3555 z m 5.1987,-3.7883 c 2.22205,-1.00895 3.32325,-4.67547 2.47109,-8.22766 -0.88329,-3.68199 -5.01524,-4.86817 -7.47473,-2.1458 -1.14369,1.26593 -1.63327,3.1426 -1.45819,5.58958 0.17184,2.40171 0.99388,3.90215 2.57454,4.69923 1.43158,0.72191 2.43567,0.74377 3.88729,0.0847 z m 39.07325,3.72507 c -3.77623,-1.30497 -5.7765,-4.61691 -5.7765,-9.5644 0,-6.30821 3.75408,-10.05469 9.75926,-9.7395 4.77466,0.25061 7.69305,3.05961 8.41653,8.10106 0.75757,5.27898 -1.75803,10.02705 -5.98683,11.29987 -1.76487,0.53121 -4.72408,0.48643 -6.41246,-0.097 z m 5.50444,-3.89455 c 0.83826,-0.43348 1.61151,-1.46929 2.04005,-2.73277 0.38027,-1.12113 0.39418,-4.32531 0.0246,-5.6563 -0.86611,-3.11886 -4.60001,-4.262 -7.08669,-2.1696 -1.15942,0.97559 -1.69262,2.55096 -1.70091,5.02552 -0.008,2.37138 0.55593,4.03132 1.73883,5.1187 1.19841,1.10164 3.31494,1.27764 4.98416,0.41445 z m -74.38406,-8.74633 c 0,-12.86607 0,-12.86607 5.22552,-12.72935 5.75319,0.15053 7.14389,0.42387 9.00099,1.76915 2.20851,1.59983 3.27079,4.69192 2.71277,7.89632 -0.36769,2.1114 -0.97526,3.32885 -2.29863,4.60594 -1.72389,1.66361 -3.18595,2.14608 -6.90159,2.27745 -3.24115,0.1146 -3.24115,0.1146 -3.24115,4.58057 0,4.46598 0,4.46598 -2.24895,4.46598 -2.24896,0 -2.24896,0 -2.24896,-12.86606 z m 10.28753,-0.69526 c 1.45722,-0.74644 2.14788,-1.9657 2.14788,-3.79178 0,-2.76632 -1.68653,-4.05972 -5.58341,-4.28191 -2.35409,-0.13422 -2.35409,-0.13422 -2.35409,4.22401 0,2.39702 0.0593,4.41756 0.13186,4.49008 0.0725,0.0725 1.11432,0.0917 2.3151,0.0427 1.61172,-0.0658 2.48676,-0.24465 3.34266,-0.68307 z m 57.30148,-9.31311 c -0.79235,-0.79235 -0.81154,-1.18979 -0.10106,-2.09301 0.54837,-0.69714 0.54837,-0.69714 4.84868,-0.69714 4.15295,0 4.32001,0.021 4.87558,0.61236 0.71762,0.76387 0.73459,1.60958 0.0461,2.29805 -0.48519,0.4852 -0.88194,0.52917 -4.77452,0.52917 -4.15465,0 -4.25924,-0.0139 -4.8948,-0.64943 z"
       style="fill:#000000;fill-opacity:1"
       id="path1-9" /><path
       d="m -354.80804,96.981128 c -1.15331,-0.34562 -1.75751,-1.0282 -1.75751,-1.98553 0,-0.95737 0.35195,-1.35308 1.32292,-1.48739 0.66146,-0.0915 0.66146,-0.0915 0.73507,-3.72952 0.0736,-3.63802 0.0736,-3.63802 -7.16889,-3.63802 -6.6804,0 -7.27648,-0.0375 -7.68038,-0.48385 -0.53696,-0.59334 -0.56824,-1.88251 -0.0625,-2.57443 0.35592,-0.48691 0.75452,-0.51359 7.67282,-0.51359 7.29739,0 7.29739,0 7.29749,-2.04697 9e-5,-2.04697 9e-5,-2.04697 -0.88848,-2.41824 -1.1463,-0.47896 -2.02184,-1.42691 -2.02184,-2.18907 0,-0.63419 0.032,-0.64759 3.43958,-1.43864 1.45521,-0.33782 1.45521,-0.33782 -0.67147,-1.01724 -2.63828,-0.84287 -2.76811,-0.93043 -2.76811,-1.86677 0,-1.12564 0.58077,-1.52048 2.7801,-1.89003 1.88295,-0.31639 2.68327,-0.75908 1.37231,-0.75908 -0.33554,0 -1.34809,-0.24923 -2.25011,-0.55385 -1.25489,-0.42378 -1.6761,-0.6976 -1.79366,-1.16598 -0.28997,-1.15531 0.26219,-1.63118 2.46548,-2.12484 1.50509,-0.33723 1.91428,-0.51226 1.52692,-0.65314 -0.30687,-0.11161 -1.57857,-0.58997 -2.18191,-0.79386 -1.33415,-0.42254 -1.9664,-1.21729 -1.71951,-2.1614 0.14268,-0.54561 0.69066,-0.85501 2.02421,-1.14291 0.76862,-0.16594 0.76862,-0.16594 0.59111,-5.29186 -0.17751,-5.12592 -0.17751,-5.12592 -9.03685,-16.97127 -5.43862,-7.271682 -8.85935,-12.072881 -8.85935,-12.434635 0,-1.479411 -0.81678,-1.420835 19.81208,-1.420835 20.71874,0 20.06032,-0.04907 19.83386,1.478244 -0.0707,0.476929 -3.40541,5.314026 -8.7482,12.689596 -8.63393,11.91888 -8.63393,11.91888 -8.71948,16.0738 -0.0855,4.15492 -0.0855,4.15492 1.15622,4.15455 0.97861,-2.8e-4 1.32792,0.12263 1.64829,0.58003 0.61104,0.87238 0.0386,1.31405 -2.4804,1.91395 -1.17777,0.28048 -2.04941,0.59762 -1.93699,0.70477 0.11243,0.10714 1.15691,0.48137 2.32108,0.8316 1.99445,0.60003 2.12127,0.68285 2.19632,1.43443 0.10252,1.02657 -0.20225,1.24391 -2.5294,1.80383 -1.05633,0.25416 -1.97448,0.54929 -2.04034,0.65586 -0.0659,0.10656 0.79778,0.4209 1.9192,0.69852 2.78886,0.69043 3.60558,1.58675 2.47552,2.7168 -0.27263,0.27263 -1.25461,0.63609 -2.20104,0.81467 -2.57139,0.48519 -2.62644,0.67901 -0.34543,1.21618 2.19307,0.51646 2.77641,0.89452 2.77008,1.79529 -0.007,1.00295 -0.37517,1.24016 -2.85771,1.8415 -2.21984,0.5377 -3.11447,0.9849 -1.96689,0.98318 0.7465,-10e-4 4.13708,0.85217 4.49792,1.13196 0.1819,0.14104 0.33073,0.59486 0.33073,1.00849 0,0.85094 -0.76574,1.41762 -1.5975,1.18219 -0.28554,-0.0808 -0.75729,-0.2145 -1.04833,-0.29707 -0.48378,-0.13724 -0.52917,-0.0238 -0.52917,1.32292 0,1.47304 0,1.47304 6.94531,1.47694 7.9949,0.005 8.22287,0.0524 8.348,1.7557 0.14392,1.9589 0.20296,1.94456 -8.00821,1.94456 -7.22919,0 -7.22919,0 -7.10415,3.37344 0.0688,1.85539 0.16844,3.51421 0.22146,3.68627 0.053,0.17206 0.48804,0.35065 0.9667,0.39688 0.66618,0.0643 0.92789,0.24887 1.11587,0.78687 0.35672,1.02091 -0.2194,2.2362 -1.22653,2.58729 -0.94746,0.33028 -4.49603,0.33645 -5.58636,0.01 z m 7.89843,-56.04468 c 2.85762,-3.98008 5.15805,-7.273217 5.11206,-7.318071 -0.046,-0.04485 -1.13157,-0.01571 -2.41239,0.06477 -2.00642,0.126069 -2.30354,0.205136 -2.14643,0.571197 0.67861,1.581196 0.72579,2.341483 0.20727,3.340644 -0.66362,1.27876 -1.95389,1.97738 -3.66544,1.98467 -1.24332,0.005 -1.37404,0.0721 -2.07181,1.05833 -0.82757,1.16973 -1.82308,1.41083 -2.2823,0.55275 -0.21473,-0.40121 -0.0898,-0.7245 0.63236,-1.63717 0.81781,-1.03346 0.86552,-1.18635 0.52283,-1.6756 -0.59893,-0.85509 -0.47395,-2.355506 0.26239,-3.150025 0.63947,-0.690003 0.63947,-0.690003 -4.89508,-0.76624 -3.044,-0.04193 -5.50465,-0.0047 -5.46812,0.08274 0.24329,0.582227 10.6566,14.257275 10.81312,14.200085 0.10773,-0.0394 2.53392,-3.32799 5.39154,-7.30808 z m -1.24289,-4.581254 c 0.11772,-0.965585 -0.77088,-1.665277 -1.71701,-1.351993 -1.05142,0.348146 -1.14319,1.411192 -0.18676,2.163517 0.63304,0.49795 0.78295,0.52143 1.27138,0.19912 0.30454,-0.20097 0.58912,-0.65576 0.63239,-1.010644 z m -2.47823,-4.684247 c 3.42127,-0.166728 3.42127,-0.166728 5.15292,-2.151103 1.73164,-1.984375 1.73164,-1.984375 -10.14335,-2.053273 -6.53125,-0.0379 -11.9236,-0.02029 -11.98302,0.03912 -0.0594,0.05941 0.6282,1.143936 1.52803,2.410053 1.63605,2.302031 1.63605,2.302031 6.8301,2.111979 2.85672,-0.104528 6.73362,-0.265079 8.61532,-0.35678 z m 11.90375,-2.003457 c 1.78701,-2.504277 1.813,-2.410023 -0.63702,-2.310311 -1.16616,0.04746 -2.1203,0.189173 -2.1203,0.314915 0,0.125742 -0.59862,1.009644 -1.33027,1.964227 -1.33027,1.735607 -1.33027,1.735607 0.77053,1.735607 2.10079,0 2.10079,0 3.31706,-1.704438 z"
       style="fill:#000000;fill-opacity:1"
       id="path1-3" /><path
       style="fill:#00b508;fill-opacity:1;stroke:#000000;stroke-width:0.279451;stroke-linecap:round;stroke-dasharray:none;stroke-opacity:1"
       d="m -350.00605,37.900893 c -1.67084,-1.136442 -1.87172,-2.637548 -0.4578,-3.420706 0.35185,-0.194887 0.46603,-0.219332 1.02446,-0.219332 0.70216,0 0.99798,0.105352 1.40021,0.4986 0.74006,0.723529 0.7771,1.777647 0.0942,2.680746 -0.31186,0.412439 -0.97341,0.850291 -1.28474,0.850291 -0.12386,0 -0.42774,-0.152507 -0.77631,-0.389599 z"
       id="path3" /></g></svg>
